<svg viewBox="0 0 512 512" xmlns="http://www.w3.org/2000/svg">
  <defs>
    <linearGradient id="markA" x1="132" y1="140" x2="360" y2="356" gradientUnits="userSpaceOnUse">
      <stop offset="0" stop-color="#2DD4BF" />
      <stop offset="1" stop-color="#38BDF8" />
    </linearGradient>
    <linearGradient id="markB" x1="178" y1="112" x2="388" y2="340" gradientUnits="userSpaceOnUse">
      <stop offset="0" stop-color="#F97316" />
      <stop offset="1" stop-color="#FB7185" />
    </linearGradient>
  </defs>
  <path d="M143 319C143 225 211 157 305 157H362C379 157 392 170 392 187C392 204 379 217 362 217H305C244 217 203 258 203 319V354C203 371 190 384 173 384C156 384 143 371 143 354V319Z" fill="url(#markA)" />
  <path d="M369 193C369 287 301 355 207 355H150C133 355 120 342 120 325C120 308 133 295 150 295H207C268 295 309 254 309 193V158C309 141 322 128 339 128C356 128 369 141 369 158V193Z" fill="url(#markB)" />
  <circle cx="173" cy="325" r="28" fill="#F8FAFC" />
  <circle cx="339" cy="187" r="28" fill="#F8FAFC" />
</svg>
